<svg xmlns="http://www.w3.org/2000/svg" width="500" height="360" viewBox="0 0 500 360">
  <g id="sn30pro_plus" transform="translate(-3318 -3744)">
    <rect id="矩形_746" data-name="矩形 746" width="500" height="360" transform="translate(3318 3744)" fill="#fff" opacity="0"/>
    <g id="组_4421" data-name="组 4421" transform="translate(457.747 308.192)">
      <g id="组_4416" data-name="组 4416" transform="translate(2458 3337)">
        <path id="路径_2557" data-name="路径 2557" d="M-509.591,1230.9s1.821,55.254,43.824,65.453c0,0,40.349,11.906,55.412-56.326,0,0,2.3-35.469,43.166-62.451a3.767,3.767,0,0,1,3.689-.26s33.257,18.895,59.764-14.689a3.489,3.489,0,0,1,2.35-1.116c1.326.029,53.334.064,53.334.064a3.805,3.805,0,0,1,2.617,1.383s21.809,31.669,59.732,14.005a3.33,3.33,0,0,1,2.932,0s17.767,9.627,31.949,31.342c0,0,8.443,9.86,15.689,47.09,0,0,12.495,41.42,41.81,41.318,0,0,54.356,1.535,53.607-78.5,0,0,2.61-85.018-12.2-148.721,0,0-4.28-40.765-44.854-66.062,0,0,.112-3.522-1.154-4.886s-18.965-12.841-50.285-13.425-41.7-.162-41.7-.162-3.072.037-4.758,1.536a4.455,4.455,0,0,0-1.461,3.559l-157.551.385s.49-2.738-1.124-4.15.489-1.093-53.428-1.122c0,0-26.545.729-44.589,15.037v3.9s-35.782,16.382-44.823,66.832C-497.636,1070.929-515.363,1160.332-509.591,1230.9Z" transform="translate(927 -862)" fill="none" stroke="#111" stroke-width="4"/>
        <g id="联合_2" data-name="联合 2" transform="translate(484.024 163.736)" fill="none">
          <path d="M27.82,73.77a2,2,0,0,1-2-2V47.95H2a2,2,0,0,1-2-2V27.819a2,2,0,0,1,2-2H25.82V2a2,2,0,0,1,2-2H45.951a2,2,0,0,1,2,2V25.819H71.771a2,2,0,0,1,2,2V45.95a2,2,0,0,1-2,2H47.951v23.82a2,2,0,0,1-2,2Z" stroke="none"/>
          <path d="M 44.95109939575195 70.77030181884766 L 44.95109939575195 47.95019912719727 L 44.95109939575195 44.95019912719727 L 47.95109939575195 44.95019912719727 L 70.77120208740234 44.95019912719727 L 70.77120208740234 28.81920051574707 L 47.95109939575195 28.81920051574707 L 44.95109939575195 28.81920051574707 L 44.95109939575195 25.81920051574707 L 44.95109939575195 2.999100685119629 L 28.82010078430176 2.999100685119629 L 28.82010078430176 25.81920051574707 L 28.82010078430176 28.81920051574707 L 25.82010078430176 28.81920051574707 L 3.000000953674316 28.81920051574707 L 3.000000953674316 44.95019912719727 L 25.82010078430176 44.95019912719727 L 28.82010078430176 44.95019912719727 L 28.82010078430176 47.95019912719727 L 28.82010078430176 70.77030181884766 L 44.95109939575195 70.77030181884766 M 45.95130157470703 73.77030181884766 L 27.81990051269531 73.77030181884766 C 26.71560096740723 73.77030181884766 25.82010078430176 72.87480163574219 25.82010078430176 71.77050018310547 L 25.82010078430176 47.95019912719727 L 1.99980103969574 47.95019912719727 C 0.8955010175704956 47.95019912719727 1.043701217895432e-06 47.05559921264648 1.043701217895432e-06 45.95040130615234 L 1.043701217895432e-06 27.81900024414063 C 1.043701217895432e-06 26.71470069885254 0.8955010175704956 25.81920051574707 1.99980103969574 25.81920051574707 L 25.82010078430176 25.81920051574707 L 25.82010078430176 1.999800801277161 C 25.82010078430176 0.8946007490158081 26.71560096740723 -0.0008992248331196606 27.81990051269531 -0.0008992248331196606 L 45.95130157470703 -0.0008992248331196606 C 47.05559921264648 -0.0008992248331196606 47.95109939575195 0.8946007490158081 47.95109939575195 1.999800801277161 L 47.95109939575195 25.81920051574707 L 71.77050018310547 25.81920051574707 C 72.87570190429688 25.81920051574707 73.77120208740234 26.71470069885254 73.77120208740234 27.81900024414063 L 73.77120208740234 45.95040130615234 C 73.77120208740234 47.05559921264648 72.87570190429688 47.95019912719727 71.77050018310547 47.95019912719727 L 47.95109939575195 47.95019912719727 L 47.95109939575195 71.77050018310547 C 47.95109939575195 72.87480163574219 47.05559921264648 73.77030181884766 45.95130157470703 73.77030181884766 Z" stroke="none" fill="#111"/>
        </g>
        <g id="椭圆_2222" data-name="椭圆 2222" transform="translate(768.042 150.826)" fill="none" stroke="#111" stroke-width="3">
          <circle cx="16.598" cy="16.598" r="16.598" stroke="none"/>
          <circle cx="16.598" cy="16.598" r="15.098" fill="none"/>
        </g>
        <g id="椭圆_2223" data-name="椭圆 2223" transform="translate(804.927 184.023)" fill="none" stroke="#111" stroke-width="3">
          <circle cx="16.598" cy="16.598" r="16.598" stroke="none"/>
          <circle cx="16.598" cy="16.598" r="15.098" fill="none"/>
        </g>
        <g id="椭圆_2224" data-name="椭圆 2224" transform="translate(768.042 217.22)" fill="none" stroke="#111" stroke-width="3">
          <circle cx="16.598" cy="16.598" r="16.598" stroke="none"/>
          <circle cx="16.598" cy="16.598" r="15.098" fill="none"/>
        </g>
        <g id="椭圆_2225" data-name="椭圆 2225" transform="translate(731.157 184.023)" fill="none" stroke="#111" stroke-width="3">
          <circle cx="16.598" cy="16.598" r="16.598" stroke="none"/>
          <circle cx="16.598" cy="16.598" r="15.098" fill="none"/>
        </g>
        <g id="椭圆_2226" data-name="椭圆 2226" transform="translate(565.172 252.261)" fill="none" stroke="#111" stroke-width="3">
          <circle cx="18.443" cy="18.443" r="18.443" stroke="none"/>
          <circle cx="18.443" cy="18.443" r="16.943" fill="none"/>
        </g>
        <g id="椭圆_2228" data-name="椭圆 2228" transform="translate(703.492 252.261)" fill="none" stroke="#111" stroke-width="3">
          <circle cx="18.443" cy="18.443" r="18.443" stroke="none"/>
          <circle cx="18.443" cy="18.443" r="16.943" fill="none"/>
        </g>
        <g id="椭圆_2227" data-name="椭圆 2227" transform="translate(550.418 237.507)" fill="none" stroke="#111" stroke-width="3">
          <circle cx="33.197" cy="33.197" r="33.197" stroke="none"/>
          <circle cx="33.197" cy="33.197" r="31.697" fill="none"/>
        </g>
        <g id="路径_3406" data-name="路径 3406" transform="translate(688.738 237.507)" fill="none">
          <path d="M33.2,0A33.2,33.2,0,1,1,0,33.2,33.2,33.2,0,0,1,33.2,0Z" stroke="none"/>
          <path d="M 33.19690322875977 3.000003814697266 C 29.11902618408203 3.000003814697266 25.16471481323242 3.797992706298828 21.44382476806641 5.371791839599609 C 17.84835815429688 6.892547607421875 14.61867141723633 9.070270538330078 11.8444709777832 11.8444709777832 C 9.070270538330078 14.61867141723633 6.892547607421875 17.84835815429688 5.371791839599609 21.44382476806641 C 3.797992706298828 25.16471481323242 3.000003814697266 29.11902618408203 3.000003814697266 33.19690322875977 C 3.000003814697266 37.2747802734375 3.797992706298828 41.22909164428711 5.371791839599609 44.94998168945313 C 6.892547607421875 48.54544830322266 9.070270538330078 51.77513885498047 11.8444709777832 54.54933547973633 C 14.61867141723633 57.32353591918945 17.84835815429688 59.50125885009766 21.44382476806641 61.02201461791992 C 25.16471481323242 62.5958137512207 29.11902618408203 63.39380264282227 33.19690322875977 63.39380264282227 C 37.2747802734375 63.39380264282227 41.22909164428711 62.5958137512207 44.94998168945313 61.02201461791992 C 48.54544830322266 59.50125885009766 51.77513885498047 57.32353591918945 54.54933547973633 54.54933547973633 C 57.32353591918945 51.77513885498047 59.50125885009766 48.54544830322266 61.02201461791992 44.94998168945313 C 62.5958137512207 41.22909164428711 63.39380264282227 37.2747802734375 63.39380264282227 33.19690322875977 C 63.39380264282227 29.11902618408203 62.5958137512207 25.16471481323242 61.02201461791992 21.44382476806641 C 59.50125885009766 17.84835815429688 57.32353591918945 14.61867141723633 54.54933547973633 11.8444709777832 C 51.77513885498047 9.070270538330078 48.54544830322266 6.892547607421875 44.94998168945313 5.371791839599609 C 41.22909164428711 3.797992706298828 37.2747802734375 3.000003814697266 33.19690322875977 3.000003814697266 M 33.19690322875977 0 C 51.53104782104492 0 66.39380645751953 14.86275863647461 66.39380645751953 33.19690322875977 C 66.39380645751953 51.53104782104492 51.53104782104492 66.39380645751953 33.19690322875977 66.39380645751953 C 14.86275863647461 66.39380645751953 0 51.53104782104492 0 33.19690322875977 C 0 14.86275863647461 14.86275863647461 0 33.19690322875977 0 Z" stroke="none" fill="#111"/>
        </g>
      </g>
      <g id="矩形_736" data-name="矩形 736" transform="translate(3051 3523)" fill="none" stroke="#111" stroke-width="3">
        <rect width="99" height="32" rx="16" stroke="none"/>
        <rect x="1.5" y="1.5" width="96" height="29" rx="14.5" fill="none"/>
      </g>
      <g id="矩形_737" data-name="矩形 737" transform="translate(3061 3533)" fill="none" stroke="#111" stroke-width="3">
        <rect width="35" height="13" rx="6.5" stroke="none"/>
        <rect x="1.5" y="1.5" width="32" height="10" rx="5" fill="none"/>
      </g>
      <g id="矩形_738" data-name="矩形 738" transform="translate(3105 3533)" fill="none" stroke="#111" stroke-width="3">
        <rect width="35" height="13" rx="6.5" stroke="none"/>
        <rect x="1.5" y="1.5" width="32" height="10" rx="5" fill="none"/>
      </g>
    </g>
  </g>
</svg>
