<svg xmlns="http://www.w3.org/2000/svg" width="94" height="94" viewBox="0 0 94 94">
  <defs>
    <pattern id="stick-texture" patternUnits="userSpaceOnUse" width="4" height="4">
      <path d="M1,3h1v1H1V3z M3,1h1v1H3V1z" fill="rgba(0,0,0,0.3)" />
    </pattern>
  </defs>
  <g>
    <g>
      <path 
        class="stick-base"
        d="M47,92.5A45.5,45.5,0,1,1,92.5,47,45.54,45.54,0,0,1,47,92.5Z"
        fill="var(--stick-color, #1a1a1a)"
      />
      <path 
        class="stick-texture"
        d="M47,92.5A45.5,45.5,0,1,1,92.5,47,45.54,45.54,0,0,1,47,92.5Z"
        fill="url(#stick-texture)"
      />
      <path 
        class="stick-ring"
        d="M47,3A44,44,0,1,1,3,47,44,44,0,0,1,47,3m0-3A47,47,0,1,0,94,47,46.95,46.95,0,0,0,47,0Z"
        fill="var(--stick-color, #1a1a1a)"
        opacity="0.8"
      />
    </g>
    <circle 
      class="stick-center"
      cx="47" 
      cy="47" 
      r="27.3"
      fill="var(--stick-color, #1a1a1a)"
      opacity="0.9"
    />
  </g>
</svg> 