<svg width="750" height="630" viewBox="0 0 750 630" fill="none" xmlns="http://www.w3.org/2000/svg">
  <path fill-rule="evenodd" clip-rule="evenodd" d="M239.6 40.5C176.9 54.1 125.1 87.8 90.3 136.5C68.9 166.4 54.1 201.5 46.9 239.5C44.1 254.3 44 256.7 44 285C44 313.3 44.1 315.7 46.9 330.5C54.1 368.5 68.9 403.6 90.3 433.5C125.1 482.2 176.9 515.9 239.6 529.5C270.9 536.3 479.1 536.3 510.4 529.5C573.1 515.9 624.9 482.2 659.7 433.5C681.1 403.6 695.9 368.5 703.1 330.5C705.9 315.7 706 313.3 706 285C706 256.7 705.9 254.3 703.1 239.5C695.9 201.5 681.1 166.4 659.7 136.5C624.9 87.8 573.1 54.1 510.4 40.5C479.1 33.7 270.9 33.7 239.6 40.5Z" fill="#FAFAFA"/>
  <path fill-rule="evenodd" clip-rule="evenodd" d="M239.6 40.5C176.9 54.1 125.1 87.8 90.3 136.5C68.9 166.4 54.1 201.5 46.9 239.5C44.1 254.3 44 256.7 44 285C44 313.3 44.1 315.7 46.9 330.5C54.1 368.5 68.9 403.6 90.3 433.5C125.1 482.2 176.9 515.9 239.6 529.5C270.9 536.3 479.1 536.3 510.4 529.5C573.1 515.9 624.9 482.2 659.7 433.5C681.1 403.6 695.9 368.5 703.1 330.5C705.9 315.7 706 313.3 706 285C706 256.7 705.9 254.3 703.1 239.5C695.9 201.5 681.1 166.4 659.7 136.5C624.9 87.8 573.1 54.1 510.4 40.5C479.1 33.7 270.9 33.7 239.6 40.5Z" fill="url(#paint0_linear)" fill-opacity="0.1"/>
  <defs>
    <linearGradient id="paint0_linear" x1="375" y1="35" x2="375" y2="535" gradientUnits="userSpaceOnUse">
      <stop stop-color="white"/>
      <stop offset="1" stop-color="red" stop-opacity="0"/>
    </linearGradient>
  </defs>
</svg> 