<?xml version="1.0" encoding="utf-8"?>
<svg version="1.1" id="Layer_1" xmlns="http://www.w3.org/2000/svg" x="0px" y="0px" width="806px" height="598px" viewBox="0 0 806 598">
    <g opacity="0.3">
        <path fill="#141414" d="M536.4,159.6c-4.8-5.6-9.6-11.2-15.2-16c-30.4-27.2-69.6-42.4-110.4-44l0,0c-2.4,0-4,0-6.4,0s-4,0-6.4,0 l0,0c-40.8,0.8-80,16.8-110.4,44c-5.6,4.8-10.4,10.4-15.2,16c-48,57.6-46.4,141.6,4,197.6c24.8,28,44,40.8,91.2,81.6 c11.2,9.6,22.4,19.2,36.8,32c0.8,0.8,1.6,1.6,3.2,1.6c0.8,0,1.6-0.8,2.4-1.6c14.4-12,25.6-22.4,36.8-32 c47.2-40.8,66.4-53.6,91.2-81.6C582.8,301.2,584.4,216.4,536.4,159.6z"/>
    </g>
</svg>