<svg width="806.1" height="598.97" viewBox="0 0 806.1 598.97" fill="none" xmlns="http://www.w3.org/2000/svg">
  {/* Main Body Shadow */}
  <path 
    class="controller-body-shadow"
    d="M801.3,418.6c-2.9-15.5-17.7-102.5-32-144.6-9.4-27.7-13.1-53-17-64.9-12-35.7-33-65.7-33-65.7s-9.5-13.1-10.1-16.3-4.7-8.6-4.7-8.6-17.4-5.7-62.3-5.7-53.7,5-53.7,5a22.51,22.51,0,0,1-5.9,4.8c-3.5,1.8-11.7,1.7-11.7,1.7H537.5a1,1,0,0,0-.9.3,5.3,5.3,0,0,0-.6,2H269.9a7.13,7.13,0,0,0-.6-2,1.06,1.06,0,0,0-.9-.3H235s-8.2.2-11.7-1.7a20.51,20.51,0,0,1-5.9-4.8s-8.8-5-53.7-5-62.3,5.7-62.3,5.7-4.1,5.3-4.7,8.6-10.1,16.3-10.1,16.3-21,30-33,65.7c-4,11.9-7.7,37.2-17,64.9C22.3,316.1,7.5,403.1,4.6,418.6.3,441.8,0,508.8,0,508.8s4.5,53.4,36.2,74.9,56.7,14,56.7,14,33.1-8.2,57.8-41.9,56.6-129.2,56.6-129.2a24.5,24.5,0,0,1,5.7-5.3,15.79,15.79,0,0,1,6.3-2.6l183.7.1,183.7-.1a15.79,15.79,0,0,1,6.3,2.6,24.5,24.5,0,0,1,5.7,5.3s31.9,95.4,56.6,129.2,57.8,41.9,57.8,41.9,25,7.5,56.7-14S806,508.8,806,508.8,805.7,441.8,801.3,418.6Z"
    fill="rgba(0,0,0,0.2)"
    transform="translate(4,4)"
  />

  {/* Main Body */}
  <path 
    class="controller-body"
    d="M801.3,418.6c-2.9-15.5-17.7-102.5-32-144.6-9.4-27.7-13.1-53-17-64.9-12-35.7-33-65.7-33-65.7s-9.5-13.1-10.1-16.3-4.7-8.6-4.7-8.6-17.4-5.7-62.3-5.7-53.7,5-53.7,5a22.51,22.51,0,0,1-5.9,4.8c-3.5,1.8-11.7,1.7-11.7,1.7H537.5a1,1,0,0,0-.9.3,5.3,5.3,0,0,0-.6,2H269.9a7.13,7.13,0,0,0-.6-2,1.06,1.06,0,0,0-.9-.3H235s-8.2.2-11.7-1.7a20.51,20.51,0,0,1-5.9-4.8s-8.8-5-53.7-5-62.3,5.7-62.3,5.7-4.1,5.3-4.7,8.6-10.1,16.3-10.1,16.3-21,30-33,65.7c-4,11.9-7.7,37.2-17,64.9C22.3,316.1,7.5,403.1,4.6,418.6.3,441.8,0,508.8,0,508.8s4.5,53.4,36.2,74.9,56.7,14,56.7,14,33.1-8.2,57.8-41.9,56.6-129.2,56.6-129.2a24.5,24.5,0,0,1,5.7-5.3,15.79,15.79,0,0,1,6.3-2.6l183.7.1,183.7-.1a15.79,15.79,0,0,1,6.3,2.6,24.5,24.5,0,0,1,5.7,5.3s31.9,95.4,56.6,129.2,57.8,41.9,57.8,41.9,25,7.5,56.7-14S806,508.8,806,508.8,805.7,441.8,801.3,418.6Z"
    fill="var(--controller-primary-color)"
  />

  {/* Touchpad with Highlight */}
  <path 
    class="controller-touchpad-highlight"
    d="M534.8,128a6.57,6.57,0,0,0-6.5-5.6H277.7a6.48,6.48,0,0,0-6.5,5.6,14.77,14.77,0,0,0-.1,2.1V257.5a16.09,16.09,0,0,0,16.1,16.1H518.8a16.09,16.09,0,0,0,16.1-16.1V130.1A7.41,7.41,0,0,0,534.8,128Z"
    fill="var(--controller-touchpad-color)"
    opacity="0.9"
  />
  <path 
    class="controller-touchpad-shine"
    d="M534.8,128a6.57,6.57,0,0,0-6.5-5.6H277.7a6.48,6.48,0,0,0-6.5,5.6,14.77,14.77,0,0,0-.1,2.1V257.5a16.09,16.09,0,0,0,16.1,16.1H518.8a16.09,16.09,0,0,0,16.1-16.1V130.1A7.41,7.41,0,0,0,534.8,128Z"
    fill="url(#touchpad-gradient)"
    opacity="0.1"
  />

  {/* Gradients */}
  <defs>
    <linearGradient id="touchpad-gradient" x1="0%" y1="0%" x2="100%" y2="100%">
      <stop offset="0%" stop-color="white" stop-opacity="0.1" />
      <stop offset="50%" stop-color="white" stop-opacity="0.2" />
      <stop offset="100%" stop-color="white" stop-opacity="0.1" />
    </linearGradient>
  </defs>

  {/* Face Button Areas */}
  <circle 
    class="controller-button-area right"
    cx="652.3" cy="244.8" r="94.3"
    fill="var(--controller-button-area-color)"
  />
  <circle 
    class="controller-button-area left"
    cx="153.7" cy="244.8" r="94.3"
    fill="var(--controller-button-area-color)"
  />

  {/* Analog Stick Areas */}
  <path 
    class="controller-stick-area left"
    d="M351.2,360a76.5,76.5,0,0,0-153,0,13.4,13.4,0,0,0,.1,2c0,.7-.1,1.3-.1,2a76.5,76.5,0,0,0,153,0,13.4,13.4,0,0,0-.1-2C351.1,361.3,351.2,360.6,351.2,360Z"
    fill="var(--controller-stick-area-color)"
  />
  <path 
    class="controller-stick-area right"
    d="M607.8,360a76.5,76.5,0,0,0-153,0,13.4,13.4,0,0,0,.1,2c0,.7-.1,1.3-.1,2a76.5,76.5,0,0,0,153,0,13.4,13.4,0,0,0-.1-2A14.08,14.08,0,0,0,607.8,360Z"
    fill="var(--controller-stick-area-color)"
  />

  {/* PS Button */}
  <circle 
    class="controller-ps-button"
    cx="403" cy="362" r="20.2"
    fill="var(--controller-ps-button-color)"
  />
</svg>
