<svg xmlns="http://www.w3.org/2000/svg" fill="none" viewBox="0 0 100 91">
  <path fill="#C1272D" d="M99.2 90.8s-32.7-3.2-50.6-3.2S.3 90 .3 90s3.1-44.7 4.8-52c1.7-7.3 7.7-21.3 16.9-27.9C31.2 3.5 34 0 44.8 0s25.4 6.4 34.6 21.4c9.2 15 19.8 69.4 19.8 69.4Z"/>
  <path fill="#9E1F20" d="M.8 83.2s26.1-4.4 49-4.4 47.9 4.4 47.9 4.4c1 4.7 1.6 7.6 1.6 7.6s-32.7-3.2-50.6-3.2S.4 90 .4 90s0-2.7.4-6.8Z"/>
  <path fill="#fff" d="m50.8 65.7-3.2 2.6a6.71 6.71 0 0 0-2 4.5h9.8v-2.6h-6.3a6.71 6.71 0 0 1 2.1-1.9c.992-.573 1.9-1.28 2.7-2.1a4.77 4.77 0 0 0 1.3-3.3 4.22 4.22 0 0 0-1.4-3.3 5.13 5.13 0 0 0-3.5-1.2c-3.1 0-4.7 1.7-4.7 5h2.7c0-1.8.7-2.7 2.1-2.7a1.83 1.83 0 0 1 2 2.1 3.5 3.5 0 0 1-1.6 2.9Zm-17.6 1.5h3c1.5 0 2.3.6 2.4 1.9.1 1.3.2 2.5.3 3.8h3.3v-.4c-.5-.2-.7-.7-.7-1.5a2.81 2.81 0 0 1 .1-.8v-.7a3.56 3.56 0 0 0-1.8-3.5 3.25 3.25 0 0 0 2.2-3.4 3.541 3.541 0 0 0-1.3-3 4.72 4.72 0 0 0-3.2-1h-7.3v14.3h3v-5.7Zm0-6.3h3.7c1.4 0 2.1.6 2.1 1.9 0 1.3-.8 1.9-2.3 1.9h-3.5v-3.8Z" opacity=".08"/>
</svg>